<svg width="40" height="40" viewBox="0 0 40 40" fill="none" xmlns="http://www.w3.org/2000/svg">
<circle cx="20" cy="20" r="20" fill="#141414"/>
<g clip-path="url(#clip0_124_88)">
<path fill-rule="evenodd" clip-rule="evenodd" d="M19.9702 10C14.4569 10 10 14.5833 10 20.2535C10 24.786 12.8557 28.6227 16.8173 29.9806C17.3127 30.0827 17.4941 29.76 17.4941 29.4885C17.4941 29.2508 17.4778 28.436 17.4778 27.5871C14.7043 28.1983 14.1267 26.3648 14.1267 26.3648C13.681 25.1765 13.0206 24.871 13.0206 24.871C12.1129 24.2429 13.0867 24.2429 13.0867 24.2429C14.0937 24.3108 14.622 25.2954 14.622 25.2954C15.5133 26.8571 16.9494 26.4158 17.5271 26.1442C17.6096 25.4821 17.8739 25.0237 18.1545 24.7692C15.9424 24.5315 13.6151 23.6488 13.6151 19.7102C13.6151 18.5898 14.011 17.6731 14.6384 16.9602C14.5394 16.7056 14.1927 15.6529 14.7376 14.244C14.7376 14.244 15.5794 13.9723 17.4776 15.2965C18.2902 15.072 19.1283 14.9578 19.9702 14.9569C20.812 14.9569 21.6702 15.0758 22.4627 15.2965C24.361 13.9723 25.2029 14.244 25.2029 14.244C25.7478 15.6529 25.4008 16.7056 25.3018 16.9602C25.9457 17.6731 26.3253 18.5898 26.3253 19.7102C26.3253 23.6488 23.998 24.5144 21.7694 24.7692C22.1327 25.0917 22.4461 25.7027 22.4461 26.6704C22.4461 28.0454 22.4298 29.149 22.4298 29.4883C22.4298 29.76 22.6114 30.0827 23.1065 29.9808C27.0682 28.6225 29.9239 24.786 29.9239 20.2535C29.9402 14.5833 25.4669 10 19.9702 10Z" fill="white"/>
</g>
<defs>
<clipPath id="clip0_124_88">
<rect width="20" height="20" fill="white" transform="translate(10 10)"/>
</clipPath>
</defs>
</svg>
