<svg width="29" height="50" viewBox="0 0 29 50" fill="none" xmlns="http://www.w3.org/2000/svg">
<path d="M1.96875 41V10.4545H15.1534C17.4205 10.4545 19.4041 10.8672 21.1044 11.6925C22.8047 12.5178 24.1271 13.706 25.0717 15.2571C26.0163 16.8082 26.4886 18.6676 26.4886 20.8352C26.4886 23.0227 26.0014 24.8672 25.027 26.3686C24.0625 27.87 22.7053 29.0036 20.9553 29.7692C19.2152 30.5348 17.1818 30.9176 14.8551 30.9176H6.98011V24.4744H13.1847C14.1591 24.4744 14.9893 24.3551 15.6754 24.1165C16.3714 23.8679 16.9034 23.4751 17.2713 22.9382C17.6491 22.4013 17.8381 21.7003 17.8381 20.8352C17.8381 19.9602 17.6491 19.2493 17.2713 18.7024C16.9034 18.1456 16.3714 17.7379 15.6754 17.4794C14.9893 17.2109 14.1591 17.0767 13.1847 17.0767H10.2614V41H1.96875ZM19.8665 26.9801L27.5028 41H18.4943L11.0369 26.9801H19.8665Z" fill="#272727"/>
<path d="M3.34659 39V11.3636H12.6847C14.8438 11.3636 16.616 11.7325 18.0014 12.4702C19.3868 13.1989 20.4124 14.2019 21.0781 15.4794C21.7438 16.7569 22.0767 18.2098 22.0767 19.8381C22.0767 21.4664 21.7438 22.9103 21.0781 24.1697C20.4124 25.4292 19.3913 26.4188 18.0149 27.1385C16.6385 27.8492 14.8797 28.2045 12.7386 28.2045H5.18182V25.1818H12.6307C14.1061 25.1818 15.2936 24.9659 16.1932 24.5341C17.1018 24.1023 17.7585 23.4905 18.1634 22.6989C18.5772 21.8982 18.7841 20.9446 18.7841 19.8381C18.7841 18.7315 18.5772 17.7644 18.1634 16.9368C17.7495 16.1091 17.0883 15.4704 16.1797 15.0206C15.2711 14.5618 14.0701 14.3324 12.5767 14.3324H6.69318V39H3.34659ZM16.3551 26.5852L23.1562 39H19.2699L12.5767 26.5852H16.3551Z" fill="white"/>
</svg>
