<svg width="40" height="40" viewBox="0 0 40 40" fill="none" xmlns="http://www.w3.org/2000/svg">
<circle cx="20" cy="20" r="20" fill="#141414"/>
<path d="M24.7989 21.4927C24.76 21.474 23.3019 20.756 23.0428 20.6628C22.9371 20.6248 22.8237 20.5877 22.7032 20.5877C22.5063 20.5877 22.3409 20.6858 22.2121 20.8785C22.0665 21.095 21.6256 21.6104 21.4893 21.7644C21.4715 21.7847 21.4472 21.809 21.4327 21.809C21.4196 21.809 21.194 21.7161 21.1257 21.6864C19.5616 21.007 18.3744 19.3731 18.2116 19.0976C18.1883 19.058 18.1874 19.04 18.1872 19.04C18.1929 19.0191 18.2455 18.9663 18.2726 18.9391C18.352 18.8605 18.4381 18.757 18.5213 18.6568C18.5607 18.6093 18.6002 18.5618 18.639 18.517C18.7598 18.3765 18.8135 18.2674 18.8759 18.141L18.9085 18.0753C19.0607 17.7729 18.9307 17.5178 18.8887 17.4354C18.8543 17.3664 18.2386 15.8805 18.1732 15.7244C18.0157 15.3478 17.8078 15.1724 17.5187 15.1724C17.4919 15.1724 17.5187 15.1724 17.4063 15.1771C17.2693 15.1829 16.5235 15.2811 16.1938 15.4889C15.8441 15.7094 15.2526 16.4121 15.2526 17.6479C15.2526 18.7602 15.9584 19.8104 16.2615 20.2098C16.269 20.2199 16.2828 20.2404 16.3029 20.2697C17.4635 21.9646 18.9103 23.2207 20.377 23.8066C21.789 24.3707 22.4576 24.4359 22.8378 24.4359H22.8378C22.9976 24.4359 23.1254 24.4233 23.2382 24.4122L23.3098 24.4054C23.7976 24.3622 24.8695 23.8067 25.1134 23.1291C25.3054 22.5954 25.3561 22.0123 25.2283 21.8007C25.1408 21.6568 24.9899 21.5844 24.7989 21.4927Z" fill="white"/>
<path d="M20.1775 10C14.7609 10 10.3541 14.3736 10.3541 19.7495C10.3541 21.4883 10.8195 23.1903 11.701 24.6799L10.0138 29.6569C9.98232 29.7497 10.0057 29.8523 10.0743 29.9221C10.1239 29.9727 10.1911 30 10.2597 30C10.286 30 10.3125 29.996 10.3384 29.9878L15.528 28.3387C16.9481 29.0975 18.5532 29.498 20.1776 29.498C25.5937 29.4981 30 25.1249 30 19.7495C30 14.3736 25.5937 10 20.1775 10ZM20.1775 27.4671C18.649 27.4671 17.1686 27.0258 15.896 26.1907C15.8532 26.1626 15.8035 26.1482 15.7535 26.1482C15.7271 26.1482 15.7006 26.1522 15.6748 26.1604L13.0751 26.9868L13.9143 24.5108C13.9415 24.4307 13.9279 24.3423 13.8779 24.274C12.9088 22.9499 12.3965 21.3854 12.3965 19.7495C12.3965 15.4935 15.8871 12.0309 20.1775 12.0309C24.4673 12.0309 27.9575 15.4935 27.9575 19.7495C27.9575 24.0051 24.4675 27.4671 20.1775 27.4671Z" fill="white"/>
</svg>
