<svg width="256" height="256" viewBox="0 0 256 256" fill="none" xmlns="http://www.w3.org/2000/svg">
<g clip-path="url(#clip0_146_30)">
<path d="M38.9849 241.92V24.436H132.641C148.746 24.436 162.836 27.3745 174.914 33.2506C186.992 39.1267 196.386 47.5867 203.096 58.6305C209.805 69.6744 213.16 82.9133 213.16 98.3466C213.16 113.922 209.7 127.054 202.778 137.744C195.927 148.434 186.286 156.506 173.855 161.957C161.494 167.408 147.05 170.133 130.522 170.133H74.5829V124.258H118.657C125.578 124.258 131.476 123.408 136.349 121.709C141.293 119.939 145.072 117.143 147.686 113.32C150.369 109.497 151.712 104.506 151.712 98.3466C151.712 92.1166 150.369 87.055 147.686 83.1611C145.072 79.1967 141.293 76.2938 136.349 74.4533C131.476 72.5416 125.578 71.5861 118.657 71.5861H97.8913V241.92H38.9849ZM166.121 142.098L220.365 241.92H156.373L103.4 142.098H166.121Z" fill="#272727"/>
<path d="M48.7723 227.68V30.9088H115.105C130.442 30.9088 143.031 33.5354 152.872 38.7878C162.713 43.9761 169.998 51.1175 174.727 60.2133C179.456 69.3091 181.821 79.6538 181.821 91.2473C181.821 102.841 179.456 113.121 174.727 122.088C169.998 131.056 162.745 138.102 152.968 143.226C143.191 148.286 130.697 150.816 115.488 150.816H61.8088V129.294H114.722C125.202 129.294 133.637 127.757 140.028 124.683C146.482 121.608 151.147 117.252 154.023 111.616C156.962 105.915 158.432 99.1255 158.432 91.2473C158.432 83.3683 156.962 76.4825 154.023 70.59C151.083 64.6968 146.386 60.1492 139.932 56.9467C133.477 53.68 124.946 52.0467 114.338 52.0467H72.5447V227.68H48.7723ZM141.178 139.287L189.489 227.68H161.883L114.338 139.287H141.178Z" fill="white"/>
</g>
<defs>
<clipPath id="clip0_146_30">
<rect width="256" height="256" fill="white"/>
</clipPath>
</defs>
</svg>
