<svg width="849" height="128" viewBox="0 0 849 128" fill="none" xmlns="http://www.w3.org/2000/svg">
<path d="M0 25.1818V6.90909H78.6818V25.1818H50.4545V100H28.2727V25.1818H0ZM112.182 101.318C104.879 101.318 98.5758 99.8788 93.2727 97C88 94.0909 83.9394 89.9545 81.0909 84.5909C78.2727 79.197 76.8636 72.7879 76.8636 65.3636C76.8636 58.1515 78.2879 51.8485 81.1364 46.4545C83.9848 41.0303 88 36.8182 93.1818 33.8182C98.3636 30.7879 104.47 29.2727 111.5 29.2727C116.47 29.2727 121.015 30.0455 125.136 31.5909C129.258 33.1364 132.818 35.4242 135.818 38.4545C138.818 41.4848 141.152 45.2273 142.818 49.6818C144.485 54.1061 145.318 59.1818 145.318 64.9091V70.4545H84.6364V57.5455H124.636C124.606 55.1818 124.045 53.0758 122.955 51.2273C121.864 49.3788 120.364 47.9394 118.455 46.9091C116.576 45.8485 114.409 45.3182 111.955 45.3182C109.47 45.3182 107.242 45.8788 105.273 47C103.303 48.0909 101.742 49.5909 100.591 51.5C99.4394 53.3788 98.8333 55.5151 98.7727 57.9091V71.0455C98.7727 73.8939 99.3333 76.3939 100.455 78.5455C101.576 80.6667 103.167 82.3182 105.227 83.5C107.288 84.6818 109.742 85.2727 112.591 85.2727C114.561 85.2727 116.348 85 117.955 84.4545C119.561 83.9091 120.939 83.1061 122.091 82.0455C123.242 80.9848 124.106 79.6818 124.682 78.1364L145.091 78.7273C144.242 83.303 142.379 87.2879 139.5 90.6818C136.652 94.0455 132.909 96.6667 128.273 98.5455C123.636 100.394 118.273 101.318 112.182 101.318ZM189.261 101.318C181.898 101.318 175.58 99.803 170.307 96.7727C165.064 93.7424 161.034 89.5303 158.216 84.1364C155.398 78.7121 153.989 72.4394 153.989 65.3182C153.989 58.1667 155.398 51.8939 158.216 46.5C161.064 41.0758 165.11 36.8485 170.352 33.8182C175.625 30.7879 181.913 29.2727 189.216 29.2727C195.67 29.2727 201.292 30.4394 206.08 32.7727C210.898 35.1061 214.655 38.4091 217.352 42.6818C220.08 46.9242 221.519 51.9091 221.67 57.6364H200.898C200.473 54.0606 199.261 51.2576 197.261 49.2273C195.292 47.197 192.716 46.1818 189.534 46.1818C186.958 46.1818 184.701 46.9091 182.761 48.3636C180.822 49.7879 179.307 51.9091 178.216 54.7273C177.155 57.5151 176.625 60.9697 176.625 65.0909C176.625 69.2121 177.155 72.697 178.216 75.5455C179.307 78.3636 180.822 80.5 182.761 81.9545C184.701 83.3788 186.958 84.0909 189.534 84.0909C191.595 84.0909 193.413 83.6515 194.989 82.7727C196.595 81.8939 197.913 80.6061 198.943 78.9091C199.973 77.1818 200.625 75.0909 200.898 72.6364H221.67C221.458 78.3939 220.019 83.4242 217.352 87.7273C214.716 92.0303 211.004 95.3788 206.216 97.7727C201.458 100.136 195.807 101.318 189.261 101.318ZM255.273 60.1818V100H233.045V6.90909H254.545V43H255.318C256.894 38.697 259.47 35.3333 263.045 32.9091C266.652 30.4848 271.061 29.2727 276.273 29.2727C281.182 29.2727 285.455 30.3636 289.091 32.5455C292.727 34.697 295.545 37.7424 297.545 41.6818C299.576 45.6212 300.576 50.2273 300.545 55.5V100H278.318V59.8636C278.348 55.9848 277.379 52.9545 275.409 50.7727C273.439 48.5909 270.667 47.5 267.091 47.5C264.758 47.5 262.697 48.0152 260.909 49.0455C259.152 50.0455 257.773 51.4848 256.773 53.3636C255.803 55.2424 255.303 57.5151 255.273 60.1818ZM336.648 60.1818V100H314.42V30.1818H335.557V43H336.33C337.875 38.7273 340.511 35.3788 344.239 32.9545C347.966 30.5 352.405 29.2727 357.557 29.2727C362.466 29.2727 366.723 30.3788 370.33 32.5909C373.966 34.7727 376.784 37.8333 378.784 41.7727C380.814 45.6818 381.814 50.2576 381.784 55.5V100H359.557V59.8636C359.587 55.9848 358.602 52.9545 356.602 50.7727C354.633 48.5909 351.89 47.5 348.375 47.5C346.042 47.5 343.981 48.0152 342.193 49.0455C340.436 50.0455 339.072 51.4848 338.102 53.3636C337.163 55.2424 336.678 57.5151 336.648 60.1818ZM428.136 101.318C420.803 101.318 414.5 99.8182 409.227 96.8182C403.985 93.7879 399.939 89.5758 397.091 84.1818C394.273 78.7576 392.864 72.4697 392.864 65.3182C392.864 58.1364 394.273 51.8485 397.091 46.4545C399.939 41.0303 403.985 36.8182 409.227 33.8182C414.5 30.7879 420.803 29.2727 428.136 29.2727C435.47 29.2727 441.758 30.7879 447 33.8182C452.273 36.8182 456.318 41.0303 459.136 46.4545C461.985 51.8485 463.409 58.1364 463.409 65.3182C463.409 72.4697 461.985 78.7576 459.136 84.1818C456.318 89.5758 452.273 93.7879 447 96.8182C441.758 99.8182 435.47 101.318 428.136 101.318ZM428.273 84.5455C430.939 84.5455 433.197 83.7273 435.045 82.0909C436.894 80.4545 438.303 78.1818 439.273 75.2727C440.273 72.3636 440.773 69 440.773 65.1818C440.773 61.303 440.273 57.9091 439.273 55C438.303 52.0909 436.894 49.8182 435.045 48.1818C433.197 46.5455 430.939 45.7273 428.273 45.7273C425.515 45.7273 423.182 46.5455 421.273 48.1818C419.394 49.8182 417.955 52.0909 416.955 55C415.985 57.9091 415.5 61.303 415.5 65.1818C415.5 69 415.985 72.3636 416.955 75.2727C417.955 78.1818 419.394 80.4545 421.273 82.0909C423.182 83.7273 425.515 84.5455 428.273 84.5455ZM497.023 6.90909V100H474.795V6.90909H497.023ZM543.761 101.318C536.428 101.318 530.125 99.8182 524.852 96.8182C519.61 93.7879 515.564 89.5758 512.716 84.1818C509.898 78.7576 508.489 72.4697 508.489 65.3182C508.489 58.1364 509.898 51.8485 512.716 46.4545C515.564 41.0303 519.61 36.8182 524.852 33.8182C530.125 30.7879 536.428 29.2727 543.761 29.2727C551.095 29.2727 557.383 30.7879 562.625 33.8182C567.898 36.8182 571.943 41.0303 574.761 46.4545C577.61 51.8485 579.034 58.1364 579.034 65.3182C579.034 72.4697 577.61 78.7576 574.761 84.1818C571.943 89.5758 567.898 93.7879 562.625 96.8182C557.383 99.8182 551.095 101.318 543.761 101.318ZM543.898 84.5455C546.564 84.5455 548.822 83.7273 550.67 82.0909C552.519 80.4545 553.928 78.1818 554.898 75.2727C555.898 72.3636 556.398 69 556.398 65.1818C556.398 61.303 555.898 57.9091 554.898 55C553.928 52.0909 552.519 49.8182 550.67 48.1818C548.822 46.5455 546.564 45.7273 543.898 45.7273C541.14 45.7273 538.807 46.5455 536.898 48.1818C535.019 49.8182 533.58 52.0909 532.58 55C531.61 57.9091 531.125 61.303 531.125 65.1818C531.125 69 531.61 72.3636 532.58 75.2727C533.58 78.1818 535.019 80.4545 536.898 82.0909C538.807 83.7273 541.14 84.5455 543.898 84.5455ZM622.966 127.636C616.33 127.636 610.648 126.712 605.92 124.864C601.193 123.015 597.481 120.485 594.784 117.273C592.087 114.061 590.466 110.424 589.92 106.364L610.966 105.182C611.36 106.606 612.087 107.848 613.148 108.909C614.239 109.97 615.648 110.788 617.375 111.364C619.133 111.939 621.193 112.227 623.557 112.227C627.284 112.227 630.36 111.318 632.784 109.5C635.239 107.712 636.466 104.576 636.466 100.091V87.8182H635.693C634.814 89.9697 633.481 91.8939 631.693 93.5909C629.905 95.2879 627.678 96.6212 625.011 97.5909C622.375 98.5606 619.345 99.0455 615.92 99.0455C610.83 99.0455 606.163 97.8636 601.92 95.5C597.708 93.1061 594.33 89.4091 591.784 84.4091C589.269 79.3788 588.011 72.9091 588.011 65C588.011 56.8485 589.314 50.1364 591.92 44.8636C594.527 39.5606 597.936 35.6364 602.148 33.0909C606.39 30.5455 610.951 29.2727 615.83 29.2727C619.496 29.2727 622.633 29.9091 625.239 31.1818C627.875 32.4242 630.042 34.0303 631.739 36C633.436 37.9697 634.723 40.0151 635.602 42.1364H636.239V30.1818H658.375V100.273C658.375 106.182 656.89 111.167 653.92 115.227C650.951 119.288 646.799 122.364 641.466 124.455C636.133 126.576 629.966 127.636 622.966 127.636ZM623.648 82.8636C626.345 82.8636 628.648 82.1515 630.557 80.7273C632.466 79.303 633.936 77.2576 634.966 74.5909C635.996 71.9242 636.511 68.7273 636.511 65C636.511 61.2121 635.996 57.9545 634.966 55.2273C633.966 52.4697 632.496 50.3485 630.557 48.8636C628.648 47.3788 626.345 46.6364 623.648 46.6364C620.89 46.6364 618.557 47.3939 616.648 48.9091C614.739 50.4242 613.284 52.5606 612.284 55.3182C611.314 58.0455 610.83 61.2727 610.83 65C610.83 68.7273 611.33 71.9242 612.33 74.5909C613.33 77.2576 614.769 79.303 616.648 80.7273C618.557 82.1515 620.89 82.8636 623.648 82.8636ZM672.545 100V30.1818H694.773V100H672.545ZM683.682 22.0455C680.561 22.0455 677.879 21.0152 675.636 18.9545C673.394 16.8636 672.273 14.3485 672.273 11.4091C672.273 8.49999 673.394 6.01515 675.636 3.95454C677.879 1.86363 680.561 0.818176 683.682 0.818176C686.833 0.818176 689.515 1.86363 691.727 3.95454C693.97 6.01515 695.091 8.49999 695.091 11.4091C695.091 14.3485 693.97 16.8636 691.727 18.9545C689.515 21.0152 686.833 22.0455 683.682 22.0455ZM741.557 101.318C734.254 101.318 727.951 99.8788 722.648 97C717.375 94.0909 713.314 89.9545 710.466 84.5909C707.648 79.197 706.239 72.7879 706.239 65.3636C706.239 58.1515 707.663 51.8485 710.511 46.4545C713.36 41.0303 717.375 36.8182 722.557 33.8182C727.739 30.7879 733.845 29.2727 740.875 29.2727C745.845 29.2727 750.39 30.0455 754.511 31.5909C758.633 33.1364 762.193 35.4242 765.193 38.4545C768.193 41.4848 770.527 45.2273 772.193 49.6818C773.86 54.1061 774.693 59.1818 774.693 64.9091V70.4545H714.011V57.5455H754.011C753.981 55.1818 753.42 53.0758 752.33 51.2273C751.239 49.3788 749.739 47.9394 747.83 46.9091C745.951 45.8485 743.784 45.3182 741.33 45.3182C738.845 45.3182 736.617 45.8788 734.648 47C732.678 48.0909 731.117 49.5909 729.966 51.5C728.814 53.3788 728.208 55.5151 728.148 57.9091V71.0455C728.148 73.8939 728.708 76.3939 729.83 78.5455C730.951 80.6667 732.542 82.3182 734.602 83.5C736.663 84.6818 739.117 85.2727 741.966 85.2727C743.936 85.2727 745.723 85 747.33 84.4545C748.936 83.9091 750.314 83.1061 751.466 82.0455C752.617 80.9848 753.481 79.6818 754.057 78.1364L774.466 78.7273C773.617 83.303 771.754 87.2879 768.875 90.6818C766.027 94.0455 762.284 96.6667 757.648 98.5455C753.011 100.394 747.648 101.318 741.557 101.318ZM847 51.5L826.591 52.0455C826.379 50.5909 825.803 49.303 824.864 48.1818C823.924 47.0303 822.697 46.1364 821.182 45.5C819.697 44.8333 817.97 44.5 816 44.5C813.424 44.5 811.227 45.0152 809.409 46.0455C807.621 47.0758 806.742 48.4697 806.773 50.2273C806.742 51.5909 807.288 52.7727 808.409 53.7727C809.561 54.7727 811.606 55.5758 814.545 56.1818L828 58.7273C834.97 60.0606 840.152 62.2727 843.545 65.3636C846.97 68.4545 848.697 72.5455 848.727 77.6364C848.697 82.4242 847.273 86.5909 844.455 90.1364C841.667 93.6818 837.848 96.4394 833 98.4091C828.152 100.348 822.606 101.318 816.364 101.318C806.394 101.318 798.53 99.2727 792.773 95.1818C787.045 91.0606 783.773 85.5455 782.955 78.6364L804.909 78.0909C805.394 80.6364 806.652 82.5758 808.682 83.9091C810.712 85.2424 813.303 85.9091 816.455 85.9091C819.303 85.9091 821.621 85.3788 823.409 84.3182C825.197 83.2576 826.106 81.8485 826.136 80.0909C826.106 78.5152 825.409 77.2576 824.045 76.3182C822.682 75.3485 820.545 74.5909 817.636 74.0455L805.455 71.7273C798.455 70.4545 793.242 68.1061 789.818 64.6818C786.394 61.2273 784.697 56.8333 784.727 51.5C784.697 46.8333 785.939 42.8485 788.455 39.5455C790.97 36.2121 794.545 33.6667 799.182 31.9091C803.818 30.1515 809.288 29.2727 815.591 29.2727C825.045 29.2727 832.5 31.2576 837.955 35.2273C843.409 39.1667 846.424 44.5909 847 51.5Z" fill="#111111"/>
</svg>
